<svg width="48" height="48" viewBox="0 0 48 48" fill="none" xmlns="http://www.w3.org/2000/svg">
<path d="M0 24C0 10.7452 10.7452 0 24 0C37.2548 0 48 10.7452 48 24C48 37.2548 37.2548 48 24 48C10.7452 48 0 37.2548 0 24Z" fill="#3E3E3E"/>
<path d="M25.0286 14.0001C26.1536 14.0031 26.7246 14.0091 27.2176 14.0231L27.4116 14.0301C27.6356 14.0381 27.8566 14.0481 28.1236 14.0601C29.1876 14.1101 29.9136 14.2781 30.5506 14.5251C31.2106 14.7791 31.7666 15.1231 32.3226 15.6781C32.8311 16.178 33.2245 16.7826 33.4756 17.4501C33.7226 18.0871 33.8906 18.8131 33.9406 19.8781C33.9526 20.1441 33.9626 20.3651 33.9706 20.5901L33.9766 20.7841C33.9916 21.2761 33.9976 21.8471 33.9996 22.9721L34.0006 23.7181V25.0281C34.003 25.7575 33.9954 26.4869 33.9776 27.2161L33.9716 27.4101C33.9636 27.6351 33.9536 27.8561 33.9416 28.1221C33.8916 29.1871 33.7216 29.9121 33.4756 30.5501C33.2253 31.2178 32.8317 31.8227 32.3226 32.3221C31.8225 32.8304 31.2179 33.2238 30.5506 33.4751C29.9136 33.7221 29.1876 33.8901 28.1236 33.9401C27.8863 33.9512 27.649 33.9612 27.4116 33.9701L27.2176 33.9761C26.7246 33.9901 26.1536 33.9971 25.0286 33.9991L24.2826 34.0001H22.9736C22.2438 34.0026 21.5141 33.9949 20.7846 33.9771L20.5906 33.9711C20.3532 33.9621 20.1158 33.9517 19.8786 33.9401C18.8146 33.8901 18.0886 33.7221 17.4506 33.4751C16.7832 33.2244 16.1788 32.8309 15.6796 32.3221C15.1706 31.8223 14.7768 31.2176 14.5256 30.5501C14.2786 29.9131 14.1106 29.1871 14.0606 28.1221C14.0494 27.8848 14.0394 27.6474 14.0306 27.4101L14.0256 27.2161C14.0071 26.4869 13.9988 25.7575 14.0006 25.0281V22.9721C13.9978 22.2427 14.0051 21.5133 14.0226 20.7841L14.0296 20.5901C14.0376 20.3651 14.0476 20.1441 14.0596 19.8781C14.1096 18.8131 14.2776 18.0881 14.5246 17.4501C14.7757 16.782 15.1703 16.1771 15.6806 15.6781C16.1797 15.1695 16.7837 14.776 17.4506 14.5251C18.0886 14.2781 18.8136 14.1101 19.8786 14.0601C20.1446 14.0481 20.3666 14.0381 20.5906 14.0301L20.7846 14.0241C21.5138 14.0063 22.2432 13.9986 22.9726 14.0011L25.0286 14.0001ZM24.0006 19.0001C22.6745 19.0001 21.4027 19.5268 20.465 20.4645C19.5274 21.4022 19.0006 22.674 19.0006 24.0001C19.0006 25.3261 19.5274 26.5979 20.465 27.5356C21.4027 28.4733 22.6745 29.0001 24.0006 29.0001C25.3267 29.0001 26.5984 28.4733 27.5361 27.5356C28.4738 26.5979 29.0006 25.3261 29.0006 24.0001C29.0006 22.674 28.4738 21.4022 27.5361 20.4645C26.5984 19.5268 25.3267 19.0001 24.0006 19.0001ZM24.0006 21.0001C24.3945 21 24.7847 21.0775 25.1487 21.2282C25.5127 21.3789 25.8434 21.5999 26.122 21.8784C26.4007 22.1569 26.6217 22.4876 26.7725 22.8515C26.9233 23.2155 27.001 23.6056 27.0011 23.9996C27.0011 24.3935 26.9236 24.7836 26.7729 25.1476C26.6222 25.5117 26.4013 25.8424 26.1228 26.121C25.8442 26.3997 25.5135 26.6207 25.1496 26.7715C24.7856 26.9223 24.3955 27 24.0016 27.0001C23.2059 27.0001 22.4429 26.684 21.8803 26.1214C21.3176 25.5588 21.0016 24.7957 21.0016 24.0001C21.0016 23.2044 21.3176 22.4413 21.8803 21.8787C22.4429 21.3161 23.2059 21.0001 24.0016 21.0001M29.2516 17.5001C28.9201 17.5001 28.6021 17.6318 28.3677 17.8662C28.1333 18.1006 28.0016 18.4185 28.0016 18.7501C28.0016 19.0816 28.1333 19.3995 28.3677 19.6339C28.6021 19.8684 28.9201 20.0001 29.2516 20.0001C29.5831 20.0001 29.901 19.8684 30.1355 19.6339C30.3699 19.3995 30.5016 19.0816 30.5016 18.7501C30.5016 18.4185 30.3699 18.1006 30.1355 17.8662C29.901 17.6318 29.5831 17.5001 29.2516 17.5001Z" fill="white"/>
</svg>
