<svg width="48" height="49" viewBox="0 0 48 49" fill="none" xmlns="http://www.w3.org/2000/svg">
<path d="M0 24.5C0 11.2452 10.7452 0.5 24 0.5C37.2548 0.5 48 11.2452 48 24.5C48 37.7548 37.2548 48.5 24 48.5C10.7452 48.5 0 37.7548 0 24.5Z" fill="#3E3E3E"/>
<path fill-rule="evenodd" clip-rule="evenodd" d="M30.9192 16.93C31.1664 16.826 31.4368 16.7901 31.7025 16.8261C31.9682 16.8621 32.2194 16.9687 32.4299 17.1347C32.6405 17.3007 32.8026 17.5201 32.8996 17.7701C32.9966 18.0201 33.0247 18.2915 32.9812 18.556L30.7132 32.313C30.4932 33.64 29.0372 34.401 27.8202 33.74C26.8022 33.187 25.2902 32.335 23.9302 31.446C23.2502 31.001 21.1672 29.576 21.4232 28.562C21.6432 27.695 25.1432 24.437 27.1432 22.5C27.9282 21.739 27.5702 21.3 26.6432 22C24.3412 23.738 20.6452 26.381 19.4232 27.125C18.3452 27.781 17.7832 27.893 17.1112 27.781C15.8852 27.577 14.7482 27.261 13.8202 26.876C12.5662 26.356 12.6272 24.632 13.8192 24.13L30.9192 16.93Z" fill="white"/>
</svg>
