<svg width="48" height="49" viewBox="0 0 48 49" fill="none" xmlns="http://www.w3.org/2000/svg">
<path d="M0 24.5C0 11.2452 10.7452 0.5 24 0.5C37.2548 0.5 48 11.2452 48 24.5C48 37.7548 37.2548 48.5 24 48.5C10.7452 48.5 0 37.7548 0 24.5Z" fill="#3E3E3E"/>
<path d="M24.002 14.5C29.525 14.5 34.002 18.977 34.002 24.5C34.002 30.023 29.525 34.5 24.002 34.5C22.2347 34.5029 20.4986 34.0352 18.972 33.145L14.006 34.5L15.358 29.532C14.4671 28.0049 13.999 26.268 14.002 24.5C14.002 18.977 18.479 14.5 24.002 14.5ZM20.594 19.8L20.394 19.808C20.2645 19.8159 20.1379 19.8499 20.022 19.908C19.9135 19.9694 19.8145 20.0462 19.728 20.136C19.608 20.249 19.54 20.347 19.467 20.442C19.0971 20.9229 18.8979 21.5133 18.901 22.12C18.903 22.61 19.031 23.087 19.231 23.533C19.64 24.435 20.313 25.39 21.201 26.275C21.415 26.488 21.625 26.702 21.851 26.901C22.9544 27.8725 24.2692 28.573 25.691 28.947L26.259 29.034C26.444 29.044 26.629 29.03 26.815 29.021C27.1062 29.006 27.3906 28.9271 27.648 28.79C27.7789 28.7225 27.9067 28.6491 28.031 28.57C28.031 28.57 28.074 28.542 28.156 28.48C28.291 28.38 28.374 28.309 28.486 28.192C28.569 28.106 28.641 28.005 28.696 27.89C28.774 27.727 28.852 27.416 28.884 27.157C28.908 26.959 28.901 26.851 28.898 26.784C28.894 26.677 28.805 26.566 28.708 26.519L28.126 26.258C28.126 26.258 27.256 25.879 26.724 25.637C26.6683 25.6127 26.6086 25.5988 26.548 25.596C26.4795 25.589 26.4104 25.5967 26.3452 25.6186C26.28 25.6405 26.2203 25.6761 26.17 25.723C26.165 25.721 26.098 25.778 25.375 26.654C25.3335 26.7098 25.2763 26.7519 25.2108 26.7751C25.1452 26.7982 25.0743 26.8013 25.007 26.784C24.9418 26.7665 24.878 26.7445 24.816 26.718C24.692 26.666 24.649 26.646 24.564 26.61C23.99 26.3595 23.4587 26.0211 22.989 25.607C22.863 25.497 22.746 25.377 22.626 25.261C22.2326 24.8842 21.8897 24.458 21.606 23.993L21.547 23.898C21.5046 23.8342 21.4703 23.7653 21.445 23.693C21.407 23.546 21.506 23.428 21.506 23.428C21.506 23.428 21.749 23.162 21.862 23.018C21.972 22.878 22.065 22.742 22.125 22.645C22.243 22.455 22.28 22.26 22.218 22.109C21.938 21.425 21.648 20.744 21.35 20.068C21.291 19.934 21.116 19.838 20.957 19.819C20.903 19.813 20.849 19.807 20.795 19.803C20.6607 19.7963 20.5261 19.7977 20.392 19.807L20.594 19.8Z" fill="white"/>
</svg>
