<svg width="174" height="194" fill="none" viewBox="-33 15 174 194" xmlns="http://www.w3.org/2000/svg">
<g id="game-icon/bunker">
<path id="Vector" d="M48.9539 17.6918C5.93627 17.6918 -28.9383 52.5609 -28.9443 95.5784V155.268H-21.2657C-0.730007 155.268 15.9173 171.915 15.9173 192.451V195.327H22.6983C21.2636 191.575 20.5249 187.593 20.5187 183.576C20.7587 165.253 35.6817 150.524 54.007 150.524C72.3319 150.524 87.2549 165.253 87.4949 183.576C87.4857 187.586 86.7468 191.559 85.3143 195.304H92.1068V192.427C92.1103 171.898 108.749 155.254 129.28 155.244H136.941V95.5784C136.934 52.5654 102.066 17.6984 59.0527 17.6918H48.9539ZM16.02 88.081C19.8346 88.0242 23.6205 88.7487 27.1447 90.2098C37.6093 94.5435 44.433 104.756 44.433 116.083C44.4361 131.548 31.9 144.086 16.4351 144.086C5.10808 144.089 -5.10594 137.267 -9.44211 126.803C-13.7783 116.34 -11.3823 104.294 -3.37408 96.2839C1.77692 91.1301 8.73418 88.1875 16.02 88.081ZM89.745 88.1046C93.5571 88.0471 97.3405 88.7702 100.863 90.2294C111.322 94.5586 118.145 104.763 118.15 116.083C118.153 131.548 105.617 144.086 90.1516 144.086C78.8316 144.084 68.6267 137.264 64.2955 126.805C59.9639 116.347 62.3589 104.309 70.3625 96.304C75.5105 91.1532 82.4635 88.2119 89.745 88.1046ZM54.0201 158.805C49.1858 158.805 44.4601 160.239 40.4406 162.925C36.4211 165.611 33.2884 169.428 31.4384 173.895C29.5885 178.361 29.1044 183.276 30.0475 188.017C30.9906 192.758 33.3185 197.114 36.7368 200.532C40.1552 203.951 44.5105 206.279 49.2521 207.222C53.9936 208.165 58.9083 207.681 63.3748 205.831C67.8412 203.981 71.6588 200.848 74.3447 196.829C77.0306 192.809 78.4643 188.083 78.4643 183.249H78.4417C78.4417 169.758 67.5112 158.817 54.0201 158.805ZM53.998 164.613C56.1331 164.613 58.1808 165.461 59.6905 166.971C61.2003 168.48 62.0484 170.528 62.0484 172.663C62.0484 174.798 61.2003 176.846 59.6905 178.356C58.1808 179.865 56.1331 180.713 53.998 180.713C51.8629 180.713 49.8152 179.865 48.3055 178.356C46.7957 176.846 45.9475 174.798 45.9475 172.663C45.9475 170.528 46.7957 168.48 48.3055 166.971C49.8152 165.461 51.8629 164.613 53.998 164.613ZM44.9412 181.72C47.0763 181.72 49.124 182.568 50.6338 184.078C52.1435 185.587 52.9917 187.635 52.9917 189.77C52.9917 191.905 52.1435 193.953 50.6338 195.463C49.124 196.973 47.0763 197.821 44.9412 197.821C42.8061 197.821 40.7584 196.973 39.2487 195.463C37.7389 193.953 36.8908 191.905 36.8908 189.77C36.8908 187.635 37.7389 185.587 39.2487 184.078C40.7584 182.568 42.8061 181.72 44.9412 181.72ZM63.0548 181.72C65.1899 181.72 67.2375 182.568 68.7473 184.078C70.257 185.587 71.1052 187.635 71.1052 189.77C71.1052 191.905 70.257 193.953 68.7473 195.463C67.2375 196.973 65.1899 197.821 63.0548 197.821C60.9196 197.821 58.872 196.973 57.3622 195.463C55.8525 193.953 55.0043 191.905 55.0043 189.77C55.0043 187.635 55.8525 185.587 57.3622 184.078C58.872 182.568 60.9196 181.72 63.0548 181.72Z" fill="#CDAA74"/>
</g>
</svg>
