<svg width="184" height="206" fill="none" viewBox="-33 9 174 206" xmlns="http://www.w3.org/2000/svg">
<g id="game-icon/dnd">
<g id="Vector">
<path d="M-3.26456 72.6837L-32.7529 162L54.0006 174.391L-3.26456 72.6837Z" fill="#CDAA74"/>
<path d="M54.0006 174.391L140.754 162L111.266 72.6837L54.0006 174.391Z" fill="#CDAA74"/>
<path d="M54.0006 12L-3.26456 72.6837H111.266L54.0006 12Z" fill="#CDAA74"/>
<path d="M54.0006 212L140.754 162L54.0006 174.391V212Z" fill="#CDAA74"/>
<path d="M-32.7529 162L54.0006 212V174.391L-32.7529 162Z" fill="#CDAA74"/>
<path d="M-32.7529 62V162L-3.26456 72.6837L-32.7529 62Z" fill="#CDAA74"/>
<path d="M54.0006 12L-32.7529 62L-3.26456 72.6837L54.0006 12Z" fill="#CDAA74"/>
<path d="M140.754 62L54.0006 12L111.266 72.6837L140.754 62Z" fill="#CDAA74"/>
<path d="M140.754 162V62L111.266 72.6837L140.754 162Z" fill="#CDAA74"/>
<path d="M54.0006 12L-32.7529 62M54.0006 12L140.754 62M54.0006 12L-3.26456 72.6837M54.0006 12L111.266 72.6837M-32.7529 62V162M-32.7529 62L-3.26456 72.6837M-32.7529 162L54.0006 212M-32.7529 162L-3.26456 72.6837M-32.7529 162L54.0006 174.391M54.0006 212L140.754 162M54.0006 212V174.391M140.754 162V62M140.754 162L54.0006 174.391M140.754 162L111.266 72.6837M140.754 62L111.266 72.6837M-3.26456 72.6837L54.0006 174.391M-3.26456 72.6837H111.266M54.0006 174.391L111.266 72.6837" stroke="#DBBD8F" stroke-width="4.65116" stroke-linecap="round" stroke-linejoin="round"/>
</g>
<path id="Vector_2" d="M37.3398 103.879C37.3398 100.033 40.3305 97.0421 44.177 97.0421C48.0236 97.0421 51.0143 100.033 51.0143 103.879C51.0143 105.591 50.1584 107.298 48.8747 108.582C45.884 110.721 37.3398 117.558 37.3398 117.558H51.0143M56.9957 110.717C56.9957 114.563 59.9864 117.554 63.8329 117.554C67.6794 117.554 70.6701 114.563 70.6701 110.717V103.879C70.6701 100.033 67.6794 97.0421 63.8329 97.0421C60.4143 97.0421 56.9957 100.033 56.9957 103.879V110.717Z" stroke="#CDAA74" stroke-width="4.65116" stroke-linecap="round" stroke-linejoin="round"/>
</g>
</svg>
