<svg width="184" height="200" fill="none" viewBox="-38 20 184 200" xmlns="http://www.w3.org/2000/svg">
<g id="game-icon/mafia">
<g id="Vector">
<path d="M137.438 24.6249C135.428 23.2447 133.111 22.377 130.69 22.0976C128.268 21.8182 125.815 22.1354 123.544 23.0217C110.391 28.1405 83.8312 36.728 54 36.728C24.1688 36.728 -2.4 28.1405 -15.5719 23.0217C-17.8445 22.1395 -20.298 21.8245 -22.7197 22.104C-25.1415 22.3835 -27.4587 23.2491 -29.4707 24.6258C-31.4826 26.0025 -33.1287 27.8488 -34.2664 30.0049C-35.4041 32.1611 -35.9991 34.562 -36 36.9999V89.2842C-36 122.884 -26.9531 154.581 -10.5187 178.515C6.50625 203.322 29.4188 216.953 54 216.953C78.5812 216.953 101.494 203.294 118.519 178.515C134.953 154.6 144 122.903 144 89.303V36.9999C143.996 34.5589 143.396 32.1558 142.252 29.9993C141.108 27.8428 139.456 25.9979 137.438 24.6249ZM-4.125 109.497C-5.4515 108.005 -6.13103 106.047 -6.01411 104.054C-5.95622 103.068 -5.70454 102.102 -5.27344 101.212C-4.84233 100.323 -4.24025 99.527 -3.50156 98.8702C-2.76288 98.2134 -1.90206 97.7085 -0.968247 97.3843C-0.0344389 97.0602 0.954066 96.9232 1.94083 96.9811C3.9337 97.098 5.7985 98.0018 7.125 99.4936C9.6375 102.306 15.4219 104.5 20.25 104.5C25.0781 104.5 30.9 102.297 33.375 99.4936C34.0318 98.7549 34.8277 98.1528 35.7172 97.7217C36.6067 97.2906 37.5724 97.0389 38.5592 96.9811C39.5459 96.9232 40.5344 97.0602 41.4682 97.3843C42.4021 97.7085 43.2629 98.2134 44.0016 98.8702C44.7402 99.527 45.3423 100.323 45.7734 101.212C46.2045 102.102 46.4562 103.068 46.5141 104.054C46.572 105.041 46.435 106.03 46.1108 106.963C45.7867 107.897 45.2818 108.758 44.625 109.497C39.2344 115.478 29.4562 119.5 20.25 119.5C11.0438 119.5 1.26562 115.478 -4.125 109.497ZM82.7062 168.653C82.0254 169.677 81.1032 170.518 80.021 171.101C78.9387 171.685 77.7296 171.993 76.5 172C75.0246 172.002 73.582 171.565 72.3562 170.744C66.2531 166.694 61.5 164.5 54 164.5C46.5 164.5 41.7469 166.694 35.6531 170.744C33.997 171.804 31.9908 172.171 30.0664 171.767C28.142 171.363 26.4534 170.218 25.3643 168.581C24.2752 166.944 23.8727 164.944 24.2436 163.013C24.6144 161.082 25.7288 159.374 27.3469 158.256C35.25 152.997 42.8063 149.5 54 149.5C65.1937 149.5 72.75 152.997 80.6531 158.256C82.3088 159.358 83.4592 161.072 83.8512 163.022C84.2433 164.971 83.8449 166.997 82.7438 168.653H82.7062ZM112.05 109.497C106.697 115.478 96.9188 119.5 87.675 119.5C78.4313 119.5 68.6906 115.478 63.3 109.497C61.9735 107.995 61.2979 106.028 61.4219 104.028C61.5458 102.028 62.4591 100.159 63.9609 98.8327C65.4627 97.5062 67.43 96.8306 69.4299 96.9545C71.4298 97.0785 73.2985 97.9918 74.625 99.4936C77.1375 102.306 82.9219 104.5 87.75 104.5C92.5781 104.5 98.4 102.297 100.875 99.4936C101.532 98.7549 102.328 98.1528 103.217 97.7217C104.107 97.2906 105.072 97.0389 106.059 96.9811C107.046 96.9232 108.034 97.0602 108.968 97.3843C109.902 97.7085 110.763 98.2134 111.502 98.8702C112.24 99.527 112.842 100.323 113.273 101.212C113.705 102.102 113.956 103.068 114.014 104.054C114.072 105.041 113.935 106.03 113.611 106.963C113.287 107.897 112.782 108.758 112.125 109.497H112.05Z" fill="#CDAA74"/>
<path d="M82.7062 168.653C82.0254 169.677 81.1032 170.518 80.021 171.101C78.9387 171.685 77.7296 171.993 76.5 172C75.0246 172.002 73.582 171.565 72.3562 170.744C66.2531 166.694 61.5 164.5 54 164.5C46.5 164.5 41.7469 166.694 35.6531 170.744C33.997 171.804 31.9908 172.171 30.0664 171.767C28.142 171.363 26.4534 170.218 25.3643 168.581C24.2752 166.944 23.8727 164.944 24.2436 163.013C24.6144 161.082 25.7288 159.374 27.3469 158.256C35.25 152.997 42.8063 149.5 54 149.5C65.1937 149.5 72.75 152.997 80.6531 158.256C82.3088 159.358 83.4592 161.072 83.8512 163.022C84.2433 164.971 83.8449 166.997 82.7438 168.653H82.7062Z" fill="#CDAA74"/>
</g>
</g>
</svg>
