<svg width="180" height="194" fill="none" viewBox="-25 10 180 194" xmlns="http://www.w3.org/2000/svg">
<g id="game-icon/poker" clip-path="url(#clip0_309_2596)">
<path id="Vector" d="M54.1766 18.6909C53.4029 18.3242 52.5784 18.0761 51.7308 17.9548L0.42798 10.8829C-1.78946 10.5771 -4.26601 11.231 -6.05021 12.5827C-7.83375 13.9331 -9.13267 16.1454 -9.43858 18.3622L-21.8487 108.32C-22.155 110.536 -21.5086 113.026 -20.1571 114.809C-18.8061 116.594 -16.594 117.893 -14.3778 118.198L36.9263 125.27C39.1435 125.576 41.6199 124.922 43.4039 123.571L43.4301 123.552C45.2016 122.199 46.4878 119.998 46.7924 117.791L59.2028 27.8333C59.5076 25.6276 58.8688 23.1516 57.5302 21.3697L57.5112 21.3436C56.8359 20.451 55.9402 19.6822 54.94 19.0962C54.6897 18.9499 54.4373 18.8136 54.1766 18.6909ZM67.3463 32.9262L55.4785 118.991C54.8387 123.595 52.3988 127.757 48.694 130.565C44.9916 133.369 40.3275 134.589 35.7263 133.956L22.1549 132.082L46.376 146.436C48.3012 147.578 50.8429 147.93 53.0112 147.377C55.1793 146.822 57.2386 145.287 58.3802 143.362L104.688 65.2564C105.829 63.3319 106.201 60.785 105.647 58.6165C105.093 56.4477 103.558 54.3895 101.633 53.2475L67.3463 32.9251L67.3463 32.9262ZM110.109 73.3156L65.909 147.831C63.5385 151.828 59.6787 154.722 55.1768 155.878C50.6755 157.024 45.9032 156.336 41.9085 153.966L31.3913 147.726L55.0215 172.551C56.5647 174.172 58.9217 175.213 61.1584 175.268C63.3966 175.322 65.785 174.392 67.4059 172.849L133.167 110.231C134.788 108.687 135.829 106.33 135.884 104.093C135.938 101.855 135.015 99.4533 133.471 97.8333L110.109 73.3166L110.109 73.3156ZM21.1995 35.7809C25.8347 51.4838 45.4478 58.092 44.6009 72.3952C43.8101 85.7391 28.4712 88.2431 20.4338 79.9352L20.6957 96.4164L11.4033 95.1419L13.85 79.62C4.57106 86.6972 -9.19447 79.9736 -8.44792 67.4826C-7.53888 52.2637 13.4214 50.3364 21.1995 35.7809ZM137.328 118.349L73.4526 179.199C70.0882 182.403 65.59 184.14 60.9458 184.03L60.9003 184.021C56.2729 183.895 51.8835 181.943 48.6906 178.591L41.7494 171.301L51.5264 196.158C52.3462 198.241 54.1436 200.088 56.1958 200.981C58.2481 201.874 60.8015 201.922 62.8842 201.102L147.399 167.834C149.482 167.014 151.322 165.229 152.215 163.177C153.108 161.125 153.15 158.552 152.33 156.469L137.329 118.349L137.328 118.349Z" fill="#CDAA74"/>
</g>
<defs>
<clipPath id="clip0_309_2596">
<rect width="240" height="240" fill="white" transform="translate(-66 -8)"/>
</clipPath>
</defs>
</svg>
