<svg width="43" height="44" viewBox="0 0 43 44" fill="none" xmlns="http://www.w3.org/2000/svg">
<path d="M23.4087 4.00012C25.4177 4.00548 26.4373 4.01619 27.3177 4.04119L27.6641 4.05369C28.0641 4.06798 28.4587 4.08584 28.9355 4.10726C30.8355 4.19655 32.1319 4.49655 33.2694 4.93762C34.448 5.39119 35.4409 6.00548 36.4337 6.99655C37.3418 7.88922 38.0444 8.96903 38.4927 10.1608C38.9337 11.2983 39.2337 12.5948 39.323 14.4965C39.3444 14.9715 39.3623 15.3662 39.3766 15.768L39.3873 16.1144C39.4141 16.993 39.4248 18.0126 39.4284 20.0215L39.4302 21.3537V23.693C39.4345 24.9955 39.4209 26.298 39.3891 27.6001L39.3784 27.9465C39.3641 28.3483 39.3462 28.743 39.3248 29.218C39.2355 31.1198 38.9319 32.4144 38.4927 33.5537C38.0457 34.7461 37.3429 35.8262 36.4337 36.718C35.5408 37.6257 34.4611 38.3282 33.2694 38.7769C32.1319 39.218 30.8355 39.518 28.9355 39.6073C28.5118 39.6272 28.088 39.6451 27.6641 39.6608L27.3177 39.6715C26.4373 39.6965 25.4177 39.709 23.4087 39.7126L22.0766 39.7144H19.7391C18.436 39.7189 17.1329 39.7052 15.8302 39.6733L15.4837 39.6626C15.0598 39.6466 14.636 39.6281 14.2123 39.6073C12.3123 39.518 11.0159 39.218 9.87659 38.7769C8.68493 38.3294 7.60555 37.6266 6.71409 36.718C5.80524 35.8256 5.10199 34.7458 4.65337 33.5537C4.2123 32.4162 3.9123 31.1198 3.82302 29.218C3.80312 28.7943 3.78526 28.3704 3.76945 27.9465L3.76052 27.6001C3.72761 26.298 3.71273 24.9955 3.71587 23.693V20.0215C3.71089 18.719 3.72399 17.4165 3.75516 16.1144L3.76766 15.768C3.78195 15.3662 3.7998 14.9715 3.82123 14.4965C3.91052 12.5948 4.21052 11.3001 4.65159 10.1608C5.10001 8.96781 5.80466 7.88766 6.71587 6.99655C7.60711 6.08847 8.68577 5.38581 9.87659 4.93762C11.0159 4.49655 12.3105 4.19655 14.2123 4.10726C14.6873 4.08584 15.0837 4.06798 15.4837 4.05369L15.8302 4.04298C17.1323 4.01125 18.4348 3.99756 19.7373 4.00191L23.4087 4.00012ZM21.573 12.9287C19.205 12.9287 16.934 13.8694 15.2596 15.5438C13.5851 17.2182 12.6444 19.4893 12.6444 21.8573C12.6444 24.2253 13.5851 26.4963 15.2596 28.1707C16.934 29.8451 19.205 30.7858 21.573 30.7858C23.941 30.7858 26.212 29.8451 27.8865 28.1707C29.5609 26.4963 30.5016 24.2253 30.5016 21.8573C30.5016 19.4893 29.5609 17.2182 27.8865 15.5438C26.212 13.8694 23.941 12.9287 21.573 12.9287ZM21.573 16.5001C22.2765 16.5 22.9732 16.6385 23.6232 16.9076C24.2732 17.1767 24.8638 17.5712 25.3613 18.0686C25.8589 18.5659 26.2536 19.1564 26.5229 19.8063C26.7923 20.4563 26.9309 21.1529 26.9311 21.8564C26.9312 22.5599 26.7927 23.2565 26.5236 23.9065C26.2545 24.5565 25.86 25.1472 25.3626 25.6447C24.8652 26.1422 24.2747 26.5369 23.6248 26.8063C22.9749 27.0756 22.2783 27.2143 21.5748 27.2144C20.154 27.2144 18.7914 26.65 17.7867 25.6453C16.7821 24.6407 16.2177 23.2781 16.2177 21.8573C16.2177 20.4365 16.7821 19.0739 17.7867 18.0692C18.7914 17.0645 20.154 16.5001 21.5748 16.5001M30.9498 10.2501C30.3578 10.2501 29.79 10.4853 29.3714 10.9039C28.9528 11.3225 28.7177 11.8903 28.7177 12.4823C28.7177 13.0743 28.9528 13.642 29.3714 14.0606C29.79 14.4792 30.3578 14.7144 30.9498 14.7144C31.5418 14.7144 32.1096 14.4792 32.5282 14.0606C32.9468 13.642 33.1819 13.0743 33.1819 12.4823C33.1819 11.8903 32.9468 11.3225 32.5282 10.9039C32.1096 10.4853 31.5418 10.2501 30.9498 10.2501Z" fill="white"/>
</svg>
