<svg width="17" height="17" viewBox="0 0 17 17" fill="none" xmlns="http://www.w3.org/2000/svg">
<path d="M13.8335 8.49998V15.1666H3.16683V8.49998M8.50016 15.1666V5.16665M8.50016 5.16665H5.50016C5.05814 5.16665 4.63421 4.99105 4.32165 4.67849C4.00909 4.36593 3.8335 3.94201 3.8335 3.49998C3.8335 3.05795 4.00909 2.63403 4.32165 2.32147C4.63421 2.00891 5.05814 1.83331 5.50016 1.83331C7.8335 1.83331 8.50016 5.16665 8.50016 5.16665ZM8.50016 5.16665H11.5002C11.9422 5.16665 12.3661 4.99105 12.6787 4.67849C12.9912 4.36593 13.1668 3.94201 13.1668 3.49998C13.1668 3.05795 12.9912 2.63403 12.6787 2.32147C12.3661 2.00891 11.9422 1.83331 11.5002 1.83331C9.16683 1.83331 8.50016 5.16665 8.50016 5.16665ZM1.8335 5.16665H15.1668V8.49998H1.8335V5.16665Z" stroke="#1B1B1B" stroke-width="1.8" stroke-linecap="round" stroke-linejoin="round"/>
</svg>
