<svg width="17" height="16" viewBox="0 0 17 16" fill="none" data-type="link" xmlns="http://www.w3.org/2000/svg">
<path d="M7.1668 8.66665C7.4531 9.0494 7.81837 9.3661 8.23783 9.59528C8.6573 9.82445 9.12114 9.96073 9.5979 9.99487C10.0747 10.029 10.5532 9.96023 11.001 9.79317C11.4489 9.62611 11.8555 9.3647 12.1935 9.02665L14.1935 7.02665C14.8007 6.39798 15.1366 5.55597 15.129 4.68198C15.1215 3.80799 14.7709 2.97195 14.1529 2.35392C13.5348 1.73589 12.6988 1.38533 11.8248 1.37774C10.9508 1.37014 10.1088 1.70612 9.48013 2.31332L8.33347 3.45332M9.83347 7.33332C9.54716 6.95056 9.18189 6.63386 8.76243 6.40469C8.34297 6.17552 7.87913 6.03924 7.40237 6.00509C6.9256 5.97095 6.44708 6.03974 5.99924 6.20679C5.5514 6.37385 5.14472 6.63527 4.8068 6.97332L2.8068 8.97332C2.19961 9.60199 1.86363 10.444 1.87122 11.318C1.87881 12.192 2.22938 13.028 2.8474 13.646C3.46543 14.2641 4.30147 14.6146 5.17546 14.6222C6.04945 14.6298 6.89146 14.2938 7.52013 13.6866L8.66013 12.5466" stroke="var(--iconStroke, white)" stroke-width="1.8" stroke-linecap="round" stroke-linejoin="round"/>
</svg>
