<svg width="15" height="18" viewBox="0 0 15 18" xmlns="http://www.w3.org/2000/svg">
<g id="Vector">
<path d="M13.4307 7.66666C13.4307 12.3333 7.43066 16.3333 7.43066 16.3333C7.43066 16.3333 1.43066 12.3333 1.43066 7.66666C1.43066 6.07537 2.06281 4.54924 3.18802 3.42402C4.31324 2.29881 5.83937 1.66666 7.43066 1.66666C9.02196 1.66666 10.5481 2.29881 11.6733 3.42402C12.7985 4.54924 13.4307 6.07537 13.4307 7.66666Z" stroke="white" stroke-width="1.8" stroke-linecap="round" stroke-linejoin="round"/>
<path d="M7.43066 9.66666C8.53523 9.66666 9.43066 8.77123 9.43066 7.66666C9.43066 6.56209 8.53523 5.66666 7.43066 5.66666C6.32609 5.66666 5.43066 6.56209 5.43066 7.66666C5.43066 8.77123 6.32609 9.66666 7.43066 9.66666Z" stroke="white" stroke-width="1.8" stroke-linecap="round" stroke-linejoin="round"/>
</g>
</svg>
