<svg width="18" height="18" viewBox="0 0 18 18" fill="none" xmlns="http://www.w3.org/2000/svg" data-type="settings">
<path d="M8.99935 11C10.1039 11 10.9993 10.1046 10.9993 8.99999C10.9993 7.89542 10.1039 6.99999 8.99935 6.99999C7.89478 6.99999 6.99935 7.89542 6.99935 8.99999C6.99935 10.1046 7.89478 11 8.99935 11Z" stroke="#1B1B1B" stroke-width="1.4" stroke-linecap="round" stroke-linejoin="round"/>
<path d="M13.9327 11C13.8439 11.2011 13.8175 11.4241 13.8567 11.6404C13.8959 11.8566 13.999 12.0562 14.1527 12.2133L14.1927 12.2533C14.3167 12.3772 14.415 12.5242 14.4821 12.6861C14.5492 12.8479 14.5837 13.0214 14.5837 13.1967C14.5837 13.3719 14.5492 13.5454 14.4821 13.7072C14.415 13.8691 14.3167 14.0162 14.1927 14.14C14.0689 14.264 13.9218 14.3623 13.7599 14.4294C13.5981 14.4965 13.4246 14.531 13.2493 14.531C13.0741 14.531 12.9006 14.4965 12.7388 14.4294C12.5769 14.3623 12.4298 14.264 12.306 14.14L12.266 14.1C12.1089 13.9463 11.9093 13.8432 11.6931 13.804C11.4768 13.7648 11.2538 13.7912 11.0527 13.88C10.8555 13.9645 10.6873 14.1048 10.5689 14.2837C10.4504 14.4625 10.3869 14.6721 10.386 14.8867V15C10.386 15.3536 10.2455 15.6928 9.99549 15.9428C9.74544 16.1928 9.4063 16.3333 9.05268 16.3333C8.69906 16.3333 8.35992 16.1928 8.10987 15.9428C7.85983 15.6928 7.71935 15.3536 7.71935 15V14.94C7.71419 14.7193 7.64276 14.5053 7.51436 14.3258C7.38595 14.1463 7.20651 14.0095 6.99935 13.9333C6.79827 13.8446 6.57522 13.8181 6.35896 13.8573C6.14269 13.8965 5.94314 13.9996 5.78602 14.1533L5.74602 14.1933C5.62218 14.3173 5.47513 14.4156 5.31327 14.4827C5.15141 14.5498 4.9779 14.5844 4.80268 14.5844C4.62746 14.5844 4.45396 14.5498 4.2921 14.4827C4.13023 14.4156 3.98318 14.3173 3.85935 14.1933C3.73538 14.0695 3.63704 13.9224 3.56994 13.7606C3.50284 13.5987 3.4683 13.4252 3.4683 13.25C3.4683 13.0748 3.50284 12.9013 3.56994 12.7394C3.63704 12.5775 3.73538 12.4305 3.85935 12.3067L3.89935 12.2667C4.05304 12.1095 4.15614 11.91 4.19535 11.6937C4.23456 11.4775 4.20809 11.2544 4.11935 11.0533C4.03484 10.8561 3.89452 10.688 3.71566 10.5695C3.5368 10.4511 3.32721 10.3875 3.11268 10.3867H2.99935C2.64573 10.3867 2.30659 10.2462 2.05654 9.99613C1.80649 9.74608 1.66602 9.40695 1.66602 9.05332C1.66602 8.6997 1.80649 8.36056 2.05654 8.11051C2.30659 7.86047 2.64573 7.71999 2.99935 7.71999H3.05935C3.28001 7.71483 3.49402 7.6434 3.67355 7.515C3.85308 7.38659 3.98983 7.20715 4.06602 6.99999C4.15476 6.79891 4.18123 6.57586 4.14202 6.3596C4.10281 6.14333 3.99971 5.94378 3.84602 5.78666L3.80602 5.74666C3.68205 5.62283 3.5837 5.47577 3.5166 5.31391C3.4495 5.15205 3.41497 4.97854 3.41497 4.80332C3.41497 4.6281 3.4495 4.4546 3.5166 4.29274C3.5837 4.13087 3.68205 3.98382 3.80602 3.85999C3.92985 3.73602 4.0769 3.63768 4.23876 3.57058C4.40063 3.50348 4.57413 3.46894 4.74935 3.46894C4.92457 3.46894 5.09807 3.50348 5.25994 3.57058C5.4218 3.63768 5.56885 3.73602 5.69268 3.85999L5.73268 3.89999C5.8898 4.05368 6.08936 4.15678 6.30562 4.19599C6.52189 4.23521 6.74494 4.20873 6.94602 4.11999H6.99935C7.19653 4.03548 7.36469 3.89516 7.48314 3.7163C7.60159 3.53744 7.66516 3.32785 7.66602 3.11332V2.99999C7.66602 2.64637 7.80649 2.30723 8.05654 2.05718C8.30659 1.80713 8.64573 1.66666 8.99935 1.66666C9.35297 1.66666 9.69211 1.80713 9.94216 2.05718C10.1922 2.30723 10.3327 2.64637 10.3327 2.99999V3.05999C10.3335 3.27451 10.3971 3.48411 10.5156 3.66297C10.634 3.84183 10.8022 3.98215 10.9993 4.06666C11.2004 4.1554 11.4235 4.18187 11.6397 4.14266C11.856 4.10345 12.0556 4.00035 12.2127 3.84666L12.2527 3.80666C12.3765 3.68269 12.5236 3.58434 12.6854 3.51724C12.8473 3.45014 13.0208 3.41561 13.196 3.41561C13.3712 3.41561 13.5447 3.45014 13.7066 3.51724C13.8685 3.58434 14.0155 3.68269 14.1393 3.80666C14.2633 3.93049 14.3617 4.07754 14.4288 4.2394C14.4959 4.40127 14.5304 4.57477 14.5304 4.74999C14.5304 4.92521 14.4959 5.09871 14.4288 5.26058C14.3617 5.42244 14.2633 5.56949 14.1393 5.69332L14.0993 5.73332C13.9457 5.89044 13.8426 6.09 13.8033 6.30626C13.7641 6.52253 13.7906 6.74558 13.8793 6.94666V6.99999C13.9639 7.19717 14.1042 7.36533 14.283 7.48379C14.4619 7.60224 14.6715 7.6658 14.886 7.66666H14.9993C15.353 7.66666 15.6921 7.80713 15.9422 8.05718C16.1922 8.30723 16.3327 8.64637 16.3327 8.99999C16.3327 9.35361 16.1922 9.69275 15.9422 9.9428C15.6921 10.1928 15.353 10.3333 14.9993 10.3333H14.9393C14.7248 10.3342 14.5152 10.3977 14.3364 10.5162C14.1575 10.6346 14.0172 10.8028 13.9327 11Z" stroke="#1B1B1B" stroke-width="1.4" stroke-linecap="round" stroke-linejoin="round"/>
</svg>
