<svg width="28" height="28" viewBox="0 0 28 28" fill="none" xmlns="http://www.w3.org/2000/svg" data-type="users">
  <g id="icon/24px/users">
    <path id="Vector" d="M19.8332 24.5V22.1667C19.8332 20.929 19.3415 19.742 18.4663 18.8668C17.5912 17.9917 16.4042 17.5 15.1665 17.5H5.83317C4.59549 17.5 3.40851 17.9917 2.53334 18.8668C1.65817 19.742 1.1665 20.929 1.1665 22.1667V24.5M26.8332 24.5V22.1667C26.8324 21.1327 26.4883 20.1282 25.8548 19.311C25.2213 18.4938 24.3343 17.9102 23.3332 17.6517M18.6665 3.65167C19.6703 3.90868 20.56 4.49248 21.1954 5.31103C21.8308 6.12957 22.1757 7.1363 22.1757 8.1725C22.1757 9.2087 21.8308 10.2154 21.1954 11.034C20.56 11.8525 19.6703 12.4363 18.6665 12.6933M15.1665 8.16667C15.1665 10.744 13.0772 12.8333 10.4998 12.8333C7.92251 12.8333 5.83317 10.744 5.83317 8.16667C5.83317 5.58934 7.92251 3.5 10.4998 3.5C13.0772 3.5 15.1665 5.58934 15.1665 8.16667Z" stroke="var(--fill, #1B1B1B)" stroke-width="2.33333" stroke-linecap="round" stroke-linejoin="round"/>
  </g>
</svg>
