<svg width="24" height="24" viewBox="0 0 24 24" fill="none" xmlns="http://www.w3.org/2000/svg">
<g id="social-icon/telegram">
<path id="Vector" fill-rule="evenodd" clip-rule="evenodd" d="M18.9202 4.43009C19.1673 4.32608 19.4378 4.29021 19.7035 4.3262C19.9692 4.3622 20.2204 4.46876 20.4309 4.63477C20.6414 4.80079 20.8036 5.0202 20.9006 5.27017C20.9975 5.52014 21.0257 5.79153 20.9822 6.05609L18.7142 19.8131C18.4942 21.1401 17.0382 21.9011 15.8212 21.2401C14.8032 20.6871 13.2912 19.8351 11.9312 18.9461C11.2512 18.5011 9.16821 17.0761 9.42421 16.0621C9.64421 15.1951 13.1442 11.9371 15.1442 10.0001C15.9292 9.23909 15.5712 8.80009 14.6442 9.50009C12.3422 11.2381 8.64621 13.8811 7.42421 14.6251C6.34621 15.2811 5.78421 15.3931 5.11221 15.2811C3.88621 15.0771 2.74921 14.7611 1.82121 14.3761C0.567208 13.8561 0.628208 12.1321 1.82021 11.6301L18.9202 4.43009Z" fill="white"/>
</g>
</svg>
