<svg width="44" height="44" viewBox="0 0 44 44" fill="none" xmlns="http://www.w3.org/2000/svg">
<path fill-rule="evenodd" clip-rule="evenodd" d="M34.2121 8.33934C34.6534 8.15361 35.1364 8.08955 35.6108 8.15383C36.0852 8.21811 36.5338 8.40839 36.9097 8.70485C37.2857 9.0013 37.5753 9.39311 37.7485 9.83948C37.9216 10.2859 37.9719 10.7705 37.8942 11.2429L33.8442 35.809C33.4514 38.1786 30.8514 39.5376 28.6781 38.3572C26.8603 37.3697 24.1603 35.8483 21.7317 34.2608C20.5174 33.4661 16.7978 30.9215 17.2549 29.1108C17.6478 27.5626 23.8978 21.7447 27.4692 18.2858C28.871 16.9268 28.2317 16.1429 26.5764 17.3929C22.4656 20.4965 15.8656 25.2161 13.6835 26.5447C11.7585 27.7161 10.7549 27.9161 9.55493 27.7161C7.36565 27.3518 5.33529 26.7876 3.67815 26.1001C1.43886 25.1715 1.54779 22.0929 3.67636 21.1965L34.2121 8.33934Z" fill="white"/>
</svg>
